# xmcd CD database file
#
# Track frame offsets:
#	150
#	27787
#	58076
#	81106
#	109810
#	131549
#	160371
#	185847
#
# Disc length: 3017 seconds
#
# Revision: 0
# Processed by: cddbd v1.4PL0 Copyright (c) Steve Scherf et al.
# Submitted via: CDex 1.50Beta7
#
DISCID=690bc708
DTITLE=Various Artist - Wizard (Rare Jazz/Fusion Gems From The Czechoslovakian Vaults Volume 2)
DYEAR=2000
DGENRE=Jazz
TTITLE0=SHQ - Cubano Chant
TTITLE1=Jazz Celula - Fire, Even Blaze!
TTITLE2=Milan Svoboda and Prague Big Band - Wait For Me
TTITLE3=Kamil Hala and CZ Radio Jazz Orchestra - Dew Drop
TTITLE4=Gustav Brom Orchestra - Dance For Two
TTITLE5=Jazz Q - Wizard
TTITLE6=Jazz Q - Presage
TTITLE7=Gustav Brom Orchestra - Memory
EXTD=YEAR: 2000
EXTT0=
EXTT1=
EXTT2=
EXTT3=
EXTT4=
EXTT5=
EXTT6=
EXTT7=
PLAYORDER=
